<mxfile host="app.diagrams.net" modified="2023-03-06T03:41:44.070Z" agent="5.0 (Macintosh; Intel Mac OS X 10_15_7) AppleWebKit/537.36 (KHTML, like Gecko) Chrome/110.0.0.0 Safari/537.36" etag="1BHOof9HNop-BUpHyr5Q" version="21.0.2" type="github">
  <diagram name="第 1 页" id="He39Cw0mRwXLMU8mr1HO">
    <mxGraphModel dx="361" dy="708" grid="1" gridSize="10" guides="1" tooltips="1" connect="1" arrows="1" fold="1" page="1" pageScale="1" pageWidth="827" pageHeight="1169" math="0" shadow="0">
      <root>
        <mxCell id="0" />
        <mxCell id="1" parent="0" />
        <mxCell id="12QfZj_Pv1xLxBVcL5fY-1" value="&lt;font color=&quot;#000000&quot;&gt;负载F5&lt;br&gt;&lt;/font&gt;&lt;font color=&quot;#000000&quot;&gt;pc.cmft.com.cn&lt;br&gt;&lt;br&gt;&lt;/font&gt;" style="aspect=fixed;perimeter=ellipsePerimeter;html=1;align=center;shadow=0;dashed=0;fontColor=#4277BB;labelBackgroundColor=#ffffff;fontSize=12;spacingTop=3;image;image=img/lib/ibm/vpc/LoadBalancer.svg;strokeColor=#3399FF;strokeWidth=2;" vertex="1" parent="1">
          <mxGeometry x="980" y="160" width="49" height="49" as="geometry" />
        </mxCell>
        <mxCell id="12QfZj_Pv1xLxBVcL5fY-2" value="general-internal-nginx&lt;font color=&quot;#232f3e&quot;&gt;&lt;span style=&quot;background-color: rgb(248 , 249 , 250)&quot;&gt;&amp;nbsp;2&lt;/span&gt;&lt;/font&gt;&lt;br&gt;10.116.177.130-131" style="aspect=fixed;html=1;points=[];align=center;image;fontSize=12;image=img/lib/mscae/Grid3x3.svg;dashed=1;strokeColor=#3399FF;strokeWidth=2;" vertex="1" parent="1">
          <mxGeometry x="983" y="330" width="42.4" height="42.4" as="geometry" />
        </mxCell>
      </root>
    </mxGraphModel>
  </diagram>
</mxfile>
